<svg width="53" height="44" viewBox="0 0 53 44" fill="none" xmlns="http://www.w3.org/2000/svg">
<path d="M0.5 16C0.5 7.16344 7.66344 0 16.5 0H52.5V28C52.5 36.8366 45.3366 44 36.5 44H0.5V16Z" fill="#4177DC"/>
<path d="M33.1667 30.3333H19.8333C19.6123 30.3333 19.4004 30.2455 19.2441 30.0892C19.0878 29.9329 19 29.721 19 29.5V14.5C19 14.2789 19.0878 14.067 19.2441 13.9107C19.4004 13.7544 19.6123 13.6666 19.8333 13.6666H33.1667C33.3877 13.6666 33.5996 13.7544 33.7559 13.9107C33.9122 14.067 34 14.2789 34 14.5V29.5C34 29.721 33.9122 29.9329 33.7559 30.0892C33.5996 30.2455 33.3877 30.3333 33.1667 30.3333ZM32.3333 28.6666V15.3333H20.6667V28.6666H32.3333ZM24 17V18.6666C24 19.3297 24.2634 19.9656 24.7322 20.4344C25.2011 20.9032 25.837 21.1666 26.5 21.1666C27.163 21.1666 27.7989 20.9032 28.2678 20.4344C28.7366 19.9656 29 19.3297 29 18.6666V17H30.6667V18.6666C30.6667 19.7717 30.2277 20.8315 29.4463 21.6129C28.6649 22.3943 27.6051 22.8333 26.5 22.8333C25.3949 22.8333 24.3351 22.3943 23.5537 21.6129C22.7723 20.8315 22.3333 19.7717 22.3333 18.6666V17H24Z" fill="white"/>
</svg>
